<?xml version="1.0" standalone="no"?>
<!DOCTYPE svg PUBLIC "-//W3C//DTD SVG 20010904//EN"
 "http://www.w3.org/TR/2001/REC-SVG-20010904/DTD/svg10.dtd">
<svg version="1.0" xmlns="http://www.w3.org/2000/svg"
 width="40.000000pt" height="40.000000pt" viewBox="0 0 40.000000 40.000000"
 preserveAspectRatio="xMidYMid meet">

<g transform="translate(0.000000,40.000000) scale(0.100000,-0.100000)"
fill="#000000" stroke="none">
<path d="M237 314 c-3 -3 -1 -19 5 -36 6 -18 8 -61 5 -103 -5 -52 -3 -77 7
-90 11 -16 14 -16 19 -2 3 9 7 61 8 117 1 78 -2 104 -12 111 -17 10 -24 11
-32 3z"/>
<path d="M127 237 c3 -27 -1 -57 -11 -81 -17 -41 -16 -53 4 -41 20 12 40 72
40 120 0 37 -3 45 -19 45 -16 0 -18 -6 -14 -43z"/>
<path d="M192 220 c2 -40 8 -65 16 -68 19 -6 16 102 -4 118 -13 12 -15 6 -12
-50z"/>
</g>
</svg>
