<svg xmlns="http://www.w3.org/2000/svg" width="24" height="24" viewBox="0 0 24 24" fill="none">
      <path d="M20 16.8001V11.4522V11.4514C20 10.9176 20 10.6505 19.9351 10.402C19.8775 10.1816 19.7827 9.97269 19.6548 9.78426C19.5104 9.57164 19.3096 9.39575 18.9074 9.04389L14.1074 4.84389C13.3608 4.1906 12.9875 3.864 12.5674 3.73976C12.1972 3.63028 11.8028 3.63028 11.4326 3.73976C11.0127 3.86393 10.6398 4.19025 9.894 4.84281L9.89278 4.84389L5.09277 9.04389L5.09182 9.04473C4.69032 9.39603 4.48944 9.57181 4.34521 9.78427C4.2173 9.97269 4.12255 10.1816 4.06497 10.402C4 10.6506 4 10.9178 4 11.4522V16.8001C4 17.9202 4 18.4802 4.21799 18.908C4.40973 19.2844 4.71547 19.5904 5.0918 19.7821C5.51944 20 6.07962 20 7.19879 20H7.2002H16.8002H16.8016C17.9208 20 18.4801 20 18.9078 19.7821C19.2841 19.5904 19.5905 19.2844 19.7822 18.908C20 18.4806 20 17.9213 20 16.8034V16.8001Z" stroke="white" stroke-width="2" stroke-linecap="round" stroke-linejoin="round" />
</svg>