<svg width="90" height="90" viewBox="0 0 90 90" fill="none" xmlns="http://www.w3.org/2000/svg">
<path d="M45 0.0864258C43.8954 0.0864258 43 0.981856 43 2.08643C43 3.191 43.8954 4.08643 45 4.08643V0.0864258ZM85.9136 45C85.9136 67.596 67.596 85.9136 45 85.9136V89.9136C69.8051 89.9136 89.9136 69.8051 89.9136 45H85.9136ZM45 85.9136C22.4041 85.9136 4.08643 67.596 4.08643 45H0.0864258C0.0864258 69.8051 20.1949 89.9136 45 89.9136V85.9136ZM45 4.08643C67.596 4.08643 85.9136 22.4041 85.9136 45H89.9136C89.9136 20.1949 69.8051 0.0864258 45 0.0864258V4.08643Z" fill="url(#paint0_linear_2110_3750)"/>
<defs>
<linearGradient id="paint0_linear_2110_3750" x1="2.08643" y1="45" x2="84.4866" y2="93.7107" gradientUnits="userSpaceOnUse">
<stop stop-color="#CCFFB4"/>
<stop offset="1" stop-color="#72B3FF"/>
</linearGradient>
</defs>
</svg>
